# xmcd CD database file
#
# Track frame offsets:
#	150
#	24345
#	52113
#	69853
#	102830
#	137080
#	165193
#	199865
#	231458
#
# Disc length: 3379 seconds
#
# Revision: 0
# Processed by: cddbd v1.5.2PL0 Copyright (c) Steve Scherf et al.
# Submitted via: CDex 1.51
#
DISCID=720d3109
DTITLE=Gaetano Letizia - Gaetano's Groove
DYEAR=1994
DGENRE=Jazz
TTITLE0=Gaetano's Groove
TTITLE1=We Heard About You
TTITLE2=Sylvester Had a Way
TTITLE3=Ambush
TTITLE4=Julia's Wish
TTITLE5=Family of the Soul
TTITLE6=Bad Habits
TTITLE7=Lessons of the Past
TTITLE8=Hit a Little Harder
EXTD=YEAR: 1994
EXTT0=
EXTT1=
EXTT2=
EXTT3=
EXTT4=
EXTT5=
EXTT6=
EXTT7=
EXTT8=
PLAYORDER=
